<svg xmlns="http://www.w3.org/2000/svg" viewBox="0 0 26 26"><defs><style>.cls-1,.cls-3{opacity:0.7;}.cls-2{fill:#fff;}.cls-3{fill:none;stroke:#fff;stroke-miterlimit:10;}</style></defs><g id="Capa_2" data-name="Capa 2"><g id="FOOTER"><g class="cls-1"><path class="cls-2" d="M13,11A2.05,2.05,0,1,0,15.05,13,2.05,2.05,0,0,0,13,11Z"/><path class="cls-2" d="M16.34,7.1H9.66A2.49,2.49,0,0,0,7.14,9.56v6.88A2.49,2.49,0,0,0,9.66,18.9h6.68a2.49,2.49,0,0,0,2.52-2.46V9.56A2.49,2.49,0,0,0,16.34,7.1Zm-3.34,9A3.06,3.06,0,1,1,16.06,13,3.06,3.06,0,0,1,13,16.06Zm3.29-5.56A.72.72,0,1,1,17,9.78.72.72,0,0,1,16.29,10.5Z"/></g><rect class="cls-3" x="0.5" y="0.5" width="25" height="25" rx="5"/></g></g></svg>