<svg xmlns="http://www.w3.org/2000/svg" viewBox="0 0 26 26"><defs><style>.cls-1,.cls-3{opacity:0.7;}.cls-2{fill:#fff;}.cls-3{fill:none;stroke:#fff;stroke-miterlimit:10;}</style></defs><g id="Capa_2" data-name="Capa 2"><g id="FOOTER"><g class="cls-1"><path class="cls-2" d="M6.61,17a7.45,7.45,0,0,0,11.47-6.62A5.42,5.42,0,0,0,19.39,9a5.44,5.44,0,0,1-1.51.41A2.61,2.61,0,0,0,19,8a5.11,5.11,0,0,1-1.67.63A2.63,2.63,0,0,0,12.9,11,7.45,7.45,0,0,1,7.5,8.29a2.62,2.62,0,0,0,.81,3.5,2.68,2.68,0,0,1-1.19-.33,2.64,2.64,0,0,0,2.11,2.6,2.64,2.64,0,0,1-1.19,0,2.63,2.63,0,0,0,2.45,1.82A5.25,5.25,0,0,1,6.61,17Z"/></g><rect class="cls-3" x="0.5" y="0.5" width="25" height="25" rx="5"/></g></g></svg>