<svg xmlns="http://www.w3.org/2000/svg" viewBox="0 0 33.33 25"><defs><style>.cls-1{opacity:0.7;}</style></defs><g id="Capa_2" data-name="Capa 2"><g id="SECTION_3_-_CONTACT_US" data-name="SECTION 3 - CONTACT US"><path class="cls-1" d="M32.7,8.26a.39.39,0,0,1,.63.3V21.87A3.13,3.13,0,0,1,30.21,25H3.13A3.13,3.13,0,0,1,0,21.87V8.57a.39.39,0,0,1,.63-.31c1.46,1.13,3.39,2.57,10,7.4,1.38,1,3.7,3.11,6,3.1s4.68-2.14,6-3.1C29.32,10.83,31.24,9.39,32.7,8.26Zm-16,8.41c1.51,0,3.68-1.9,4.78-2.7,8.63-6.27,9.29-6.82,11.28-8.38a1.55,1.55,0,0,0,.6-1.23V3.13A3.13,3.13,0,0,0,30.21,0H3.13A3.13,3.13,0,0,0,0,3.12V4.36A1.56,1.56,0,0,0,.6,5.59C2.59,7.15,3.25,7.7,11.89,14c1.09.8,3.27,2.72,4.78,2.7Z"/></g></g></svg>