<svg xmlns="http://www.w3.org/2000/svg" viewBox="0 0 25 25"><defs><style>.cls-1{opacity:0.7;}</style></defs><g id="Capa_2" data-name="Capa 2"><g id="SECTION_3_-_CONTACT_US" data-name="SECTION 3 - CONTACT US"><path class="cls-1" d="M24.29,17.67l-5.47-2.35a1.18,1.18,0,0,0-1.37.34l-2.42,3A18.08,18.08,0,0,1,6.38,10l3-2.43a1.16,1.16,0,0,0,.33-1.36L7.33.71A1.17,1.17,0,0,0,6,0L.91,1.2A1.18,1.18,0,0,0,0,2.34,22.65,22.65,0,0,0,22.66,25a1.18,1.18,0,0,0,1.14-.91L25,19a1.17,1.17,0,0,0-.68-1.34Z"/></g></g></svg>