<svg xmlns="http://www.w3.org/2000/svg" xmlns:xlink="http://www.w3.org/1999/xlink" viewBox="0 0 1920 665"><defs><style>.cls-1{fill:none;}.cls-2{clip-path:url(#clip-path);}.cls-3{opacity:0.1;}.cls-4{fill:#fff;}</style><clipPath id="clip-path"><rect class="cls-1" width="1920" height="665"/></clipPath></defs><g id="Capa_2" data-name="Capa 2"><g id="FOOTER"><g class="cls-2"><g id="Mountain_Footer" data-name="Mountain Footer" class="cls-3"><path class="cls-4" d="M1909.15,711.24l-69.79-8.08-52.73-108.45-1.86-3.82-4-1.71-36.63-15.73-18.33-7.87-9.16-3.93-4.57-2-3.31-1.6c-8.49-4.7-16.07-15-23.12-26.17-7.25-11.2-13.76-23.72-23.89-35.74l-3.65-4.33-5.6.52c-8.61.81-16.58,3.59-23.3,6-3.78,1.39-7.21,2.49-10.52,3.37A232,232,0,0,1,1611,475.2c-3.07-12.58-6.58-26.3-12.69-39.25l-4.95-10.5-10.08,5.15c-5.18,2.65-9.4,7-12.42,10.77l-18-50.59-7.88-22.2-12.18,19.92-55.23,90.33-1.7,2.78v3.56c0,14.55,1.89,27.94,2.6,40.47-9.25,2.45-19.39,3.92-30,6-3.45.68-7,1.44-10.5,2.37-1.74.44-3.59,1-5.5,1.56l-5.2,1.75a140,140,0,0,0-20.12,9.47c-21.38,12.38-38.57,28.63-56,42.52-9.79-23.1-18.19-47.72-29.48-71.94l-2.67-5.75-5.89-.75c-15.15-1.94-28.51.16-40.16,0-.19-1.76-.38-3.52-.52-5.53a103.93,103.93,0,0,0-2.56-18.09l-1.13-4.44-3.56-2.49-87.29-61.2c-9-28-19.56-54.76-28-81.66l-3.2-10.23-9.76,2.3c-13,3-24.5,7.49-35.47,10.58-15.87-17.53-31.28-35.68-46.77-54l-25.65-30-13.17-14.85-6.5-7.23-5.56-6.77-5-7.34L994.32,212c-2.77-5.46-5.38-11.09-7.7-17-4.65-11.76-8.46-24.27-12.27-37.06s-7.64-25.92-12.43-39c-2.37-6.55-5.08-13.07-8.06-19.51a190.63,190.63,0,0,0-10.3-18.84l-10.93-17.8-8.38,19.33L871.9,202.81,839.21,206l-7.53.72-1.93,8.17c-5.8,24.54-8.46,48.63-13.35,71.19A294.78,294.78,0,0,1,786,296.94c-12.52,3.95-25.5,7.81-38.55,14.2l-5.09,2.49-1.09,5.62-11.5,59.07-2.3-.73-7.52-2.35a38.79,38.79,0,0,0-10.07-1.7l-7.85-.22-2.66,8L666,482.09a99.58,99.58,0,0,1-12.62,6.06c-2.37,1-4.9,2.06-7.48,3.23-.6-2-1.21-4-1.8-6.09-2-6.63-3.68-13.26-6.86-21l-4.08-9.84L623.6,458a89.75,89.75,0,0,0-12.72,6.1l-1,.54c-4-8.41-8-17.44-12.85-26.57l-3.81-7.13-7.59,1.3c-18.75,3.2-35.77,9-52.21,12.39-35.51-45.68-67.61-95.2-104.35-141.8L418.76,289.7l-7.88,14.68-27.41,51.07-3.47,6.4-3.33,5.77a38.73,38.73,0,0,1-3.11,4.5,5.23,5.23,0,0,1-1.59,1.55c0,.07-.26.14-1.54.08a28.94,28.94,0,0,1-5-.86c-4-1-8.45-2.28-12.92-3.52l-8.07-2.25-4.34,7.6-43.67,76.55A254,254,0,0,0,242,478.48a225.33,225.33,0,0,0-46.05,41.24c-15.12,1.25-30.64,1.08-46.9,1.82-4.32.2-9,.5-13.3.9l-1.61.14-.4,0c1.27-.22-3.88.26-6.21,2.57a12.62,12.62,0,0,0-1.73,1.69l-.53.71-.64,1a18.62,18.62,0,0,0-1,2,31.69,31.69,0,0,0-1.55,5.61c-.55,2.79-.88,5.2-1.21,7.63-1.22,9.57-2,18.73-2.85,27.94l-2.49,27.26-.74,6.41a12.91,12.91,0,0,0-.24,1.81c.1-.08-.58,1.87-.84,2.71l-2,6.12c0,.12-.07.18-.11.29L107.19,619l-5.59,3.72a90.87,90.87,0,0,1-10.21,5.57C84,631.77,76,634.85,67.47,639l-5,2.43-1.25,5.76-9,41.34L8.7,702.6l-5.44,1.76L1.84,710v0C-1,731.58,1.84,750.14,0,769.63,7.76,754.8,13,737.86,19.91,724l1.79-.58,62.6,29.46-10.16-59.2,7.56-34.87L160,731.9l-31.44-99.47a13.78,13.78,0,0,0,1.89-2.73,33.23,33.23,0,0,0,2.18-5l2.27-6.88c.41-1.34.56-1.53,1.17-3.83.57-2.5.7-3.72.89-5l.84-7.27,2.52-27.62c.82-9.08,1.63-18.23,2.74-26.88.06-.45.14-.83.2-1.28l1.3-.09,65.4,103.22,9.6-121.2a201.1,201.1,0,0,1,34.37-29.09,235,235,0,0,1,53.55-26.26l3.93-1.38,2.16-3.78,41.4-72.57c1.05.29,2.15.57,3.24.85l24.07,79.77,3.52-82.92a28.09,28.09,0,0,0,4.53-4.4,60.7,60.7,0,0,0,5.11-7.29q2.12-3.46,3.9-6.75l3.44-6.34,14.51-27c-3.34,24-5,56-11.49,65.06,5.11,8.89,11.58,17.54,16.69,26.43-9,17.73-18.12,40-27.12,57.74,10,36.59,24.62,77.58,34.61,114.17,11.44-21.68,24.13-47.42,35.57-69.11-4.23-26.24-6.28-55.62-10.51-81.86L485.64,419c11.3,15.63,22.74,31.21,34.75,46.45l1.42,1.82-29.18,51.62,92.76-53c3,6.54,6.18,13.33,9.86,20.2l4.55,8.51,8.57-3.1a70,70,0,0,0,10.12-4.7v97.91L669,507.2a74.1,74.1,0,0,0,12.26-6.85l3.11-2.2,1.2-3.6,30.31-91.49,43.63,181.63,83.35,56.88-39.22-89.82,56.73,16.64L749.8,392.76l11.58-59.48,76.15,45.81,8.52-130.51q1.68-10,3.72-19.61l31-3,6.06-.58,2.63-6.06,44.1-101.66c-.24,46.57,1,114.61.23,153.3,18.12,20.58,37.86,45,56,65.59-4.41,4.53-7.41,11.89-11.82,16.42,2.11,10.72,7.18,21.59,9.29,32.31,18.59,17.46,38.3,36.81,56.89,54.27,32.86-6.51,81.52-2.88,119.12-2.13L1249,497.59c.48,2.94.85,6,1.11,9.66a103.83,103.83,0,0,0,2.56,18.08l2,7.85,7.37.94c13.49,1.72,25.58.17,36.29-.06l-1.44,162.86,54.94-78.62,1.15-.83c23.43-16.88,42.81-37.05,64.78-49.55a117.55,117.55,0,0,1,16.83-7.94l4.44-1.48,4.28-1.21c3-.79,6.1-1.46,9.28-2.09,12.68-2.56,26.72-4.14,41.1-9.3l7.61-2.72,0-8.61c0-16.74-2.5-31.94-2.8-46l41.24-67.45.26.74c-4.57,41.17-10.25,98.87-14.56,136.22,18.35,24.18,36.51,50.34,54.86,74.52,14.54-32.6,29.09-74.19,43.63-107.48,4.47-1.18,8.68-2.62,12.46-4a110.12,110.12,0,0,1,11.52-3.56c-4.31,33.82-14.46,76.11-11,108.67,18.27-17.28,37-34.18,55.34-51.37a59.06,59.06,0,0,0,6.13,4.45L1704,582l4.58,2,9.16,3.93,18.32,7.87,27.86,12L1732,644.65c22.12,10.54,47.53,22.75,69.85,33.39l20.41,42,2.71,5.57,6,.68,70.39,8.15,15.21,35.2,2.93-48.76.5-8.33-10.27-1.23ZM135.57,546.49l.14,0C135.29,546.53,135.12,546.54,135.57,546.49ZM1094,366.31l.21.23,6-1.41c11.55-2.72,22-6.62,31.94-9.62,7.5,22.64,15.73,44.56,22.93,66.44-19.48-13.33-43.57-29.15-55.3-38.29C1097.43,377.8,1095.78,372,1094,366.31Z"/><path class="cls-4" d="M1140.86,560.71c-32.09-4.57-106.9-50.54-135.13-60L903.84,609l107.54-78c8,22.86,20.3,50.46,16.82,60.95,10.92,6.06,23.45,11.32,34.38,17.38-2.49,20.08-2.86,44.4-5.36,64.47,31,29.53,70.06,61.17,101,90.71,3.6-24.74,6.75-53.74,10.35-78.47-18.52-22.4-35.85-48.6-54.36-71Z"/><polygon class="cls-4" points="428.09 686.77 514.02 601.09 559.58 769.84 559.58 684.01 582.46 705.97 606.28 654.07 502.25 578.46 428.09 686.77"/><polygon class="cls-4" points="1462.7 632.56 1414.93 707.94 1470.29 655.19 1544.07 753.11 1559.01 696.92 1511.38 672.01 1462.7 632.56"/><path class="cls-4" d="M962.87,448.45l-39.3-3-33-135.63,20.28,157.35S962.21,448.45,962.87,448.45Z"/><polygon class="cls-4" points="328.06 610.63 308.56 610.63 290.45 530.31 295.98 634.5 373.36 659.54 342.07 637.58 328.06 610.63"/></g></g></g></g></svg>