<svg xmlns="http://www.w3.org/2000/svg" viewBox="0 0 1920 707.01"><defs><style>.cls-1{opacity:0.05;}.cls-2{fill:#fff;}</style></defs><g id="Capa_2" data-name="Capa 2"><g id="FOOTER"><g id="Mountain_Footer" data-name="Mountain Footer" class="cls-1"><path class="cls-2" d="M1909.15,648.4l-69.79-8.07-52.73-108.46-1.86-3.81-4-1.72-36.63-15.73-18.33-7.86-9.16-3.93-4.57-2-3.31-1.61c-8.49-4.7-16.07-15-23.12-26.16-7.25-11.2-13.76-23.72-23.89-35.75l-3.65-4.33-5.6.53c-8.61.8-16.58,3.58-23.3,6-3.78,1.38-7.21,2.49-10.52,3.36a230.83,230.83,0,0,1-7.67-26.55c-3.07-12.57-6.58-26.29-12.69-39.25l-4.95-10.5-10.08,5.16c-5.18,2.65-9.4,7-12.42,10.77l-18-50.6-7.88-22.2-12.18,19.93L1477.63,416l-1.7,2.78v3.55c0,14.55,1.89,27.95,2.6,40.48-9.25,2.44-19.39,3.92-30,6-3.45.69-7,1.44-10.5,2.38-1.74.43-3.59,1-5.5,1.55l-5.2,1.76a140,140,0,0,0-20.12,9.47c-21.38,12.37-38.57,28.62-56,42.51-9.79-23.1-18.19-47.72-29.48-71.94l-2.67-5.75-5.89-.75c-15.15-1.93-28.51.16-40.16,0-.19-1.76-.38-3.51-.52-5.53a103.7,103.7,0,0,0-2.56-18.08l-1.13-4.44-3.56-2.5-87.29-61.19c-9-28-19.56-54.76-28-81.67l-3.2-10.22-9.76,2.29c-13,3-24.5,7.5-35.47,10.58-15.87-17.53-31.28-35.68-46.77-54l-25.65-30-13.17-14.86-6.5-7.23-5.56-6.76-5-7.35-4.51-7.87c-2.77-5.47-5.38-11.09-7.7-17C982,120.45,978.16,108,974.35,95.15s-7.64-25.91-12.43-39c-2.37-6.56-5.08-13.07-8.06-19.51a190.78,190.78,0,0,0-10.3-18.85L932.63,0l-8.38,19.33L871.9,140l-32.69,3.13-7.53.72L829.75,152c-5.8,24.53-8.46,48.62-13.35,71.19A297.14,297.14,0,0,1,786,234.11c-12.52,3.94-25.5,7.8-38.55,14.2l-5.09,2.49-1.09,5.62-11.5,59.06-2.3-.72-7.52-2.36a39.66,39.66,0,0,0-10.07-1.7l-7.85-.21-2.66,8L666,419.25a99.54,99.54,0,0,1-12.62,6.07c-2.37,1-4.9,2.06-7.48,3.23-.6-2-1.21-4-1.8-6.09-2-6.64-3.68-13.27-6.86-21l-4.08-9.83-9.52,3.45a89.82,89.82,0,0,0-12.72,6.09l-1,.54c-4-8.41-8-17.43-12.85-26.56l-3.81-7.13-7.59,1.29c-18.75,3.2-35.77,9-52.21,12.4-35.51-45.69-67.61-95.2-104.35-141.81l-10.31-13.08-7.88,14.69-27.41,51.07L380,299l-3.33,5.77a39,39,0,0,1-3.11,4.51,5.59,5.59,0,0,1-1.59,1.55c0,.06-.26.13-1.54.08a30.15,30.15,0,0,1-5-.87c-4-.95-8.45-2.27-12.92-3.52l-8.07-2.25-4.34,7.61-43.67,76.54A254,254,0,0,0,242,415.64a225.08,225.08,0,0,0-46.05,41.25c-15.12,1.24-30.64,1.08-46.9,1.82-4.32.2-9,.5-13.3.89l-1.61.15-.4,0c1.27-.21-3.88.27-6.21,2.57a12.68,12.68,0,0,0-1.73,1.7l-.53.7-.64,1a19.65,19.65,0,0,0-1,2.05,31.46,31.46,0,0,0-1.55,5.61c-.55,2.79-.88,5.19-1.21,7.62-1.22,9.57-2,18.73-2.85,27.94l-2.49,27.26-.74,6.42a12.91,12.91,0,0,0-.24,1.8c.1-.07-.58,1.87-.84,2.71l-2,6.13c0,.12-.07.18-.11.29l-4.34,2.56-5.59,3.71a92.52,92.52,0,0,1-10.21,5.58C84,568.94,76,572,67.47,576.12l-5,2.42-1.25,5.77-9,41.34L8.7,639.77l-5.44,1.76-1.42,5.6v0C-1,668.74,1.84,687.3,0,706.79,7.76,692,13,675,19.91,661.14l1.79-.58L84.3,690,74.14,630.81,81.7,596,160,669.06l-31.44-99.47a13.78,13.78,0,0,0,1.89-2.73,33.65,33.65,0,0,0,2.18-5l2.27-6.88c.41-1.35.56-1.53,1.17-3.84.57-2.49.7-3.72.89-5l.84-7.26,2.52-27.63c.82-9.08,1.63-18.23,2.74-26.87.06-.46.14-.83.2-1.29l1.3-.08,65.4,103.21,9.6-121.2a200.59,200.59,0,0,1,34.37-29.08,235,235,0,0,1,53.55-26.27l3.93-1.37,2.16-3.78L354.92,332l3.24.85,24.07,79.77,3.52-82.92a28.12,28.12,0,0,0,4.53-4.41,61.45,61.45,0,0,0,5.11-7.28c1.41-2.31,2.71-4.57,3.9-6.76l3.44-6.34,14.51-27c-3.34,24-5,56-11.49,65.06,5.11,8.9,11.58,17.54,16.69,26.44-9,17.72-18.12,40-27.12,57.73,10,36.6,24.62,77.59,34.61,114.18,11.44-21.68,24.13-47.43,35.57-69.11-4.23-26.25-6.28-55.62-10.51-81.87l30.65-34.12c11.3,15.64,22.74,31.22,34.75,46.46l1.42,1.81-29.18,51.63,92.76-53c3,6.54,6.18,13.34,9.86,20.21l4.55,8.5,8.57-3.1a70,70,0,0,0,10.12-4.7v97.91L669,444.36a72.68,72.68,0,0,0,12.26-6.85l3.11-2.19,1.2-3.6,30.31-91.5,43.63,181.63,83.35,56.89-39.22-89.82,56.73,16.63L749.8,329.92l11.58-59.48,76.15,45.81,8.52-130.5q1.68-10,3.72-19.62l31-3,6.06-.57,2.63-6.07,44.1-101.65c-.24,46.56,1,114.61.23,153.29,18.12,20.59,37.86,45,56,65.6-4.41,4.53-7.41,11.89-11.82,16.42,2.11,10.72,7.18,21.59,9.29,32.31,18.59,17.45,38.3,36.81,56.89,54.26,32.86-6.51,81.52-2.88,119.12-2.12L1249,434.75c.48,2.95.85,6,1.11,9.66a103.7,103.7,0,0,0,2.56,18.08l2,7.85,7.37.94c13.49,1.73,25.58.18,36.29-.06l-1.44,162.86,54.94-78.62,1.15-.82c23.43-16.88,42.81-37,64.78-49.56a117.49,117.49,0,0,1,16.83-7.93l4.44-1.49,4.28-1.2c3-.79,6.1-1.47,9.28-2.1,12.68-2.55,26.72-4.13,41.1-9.29l7.61-2.73,0-8.61c0-16.73-2.5-31.94-2.8-46l41.24-67.44.26.73c-4.57,41.17-10.25,98.88-14.56,136.23,18.35,24.17,36.51,50.34,54.86,74.51,14.54-32.59,29.09-74.18,43.63-107.47,4.47-1.18,8.68-2.62,12.46-4a112.57,112.57,0,0,1,11.52-3.56c-4.31,33.83-14.46,76.11-11,108.67,18.27-17.28,37-34.18,55.34-51.36a60.5,60.5,0,0,0,6.13,4.44l5.67,2.76,4.58,2,9.16,3.93,18.32,7.86,27.86,12L1732,581.81c22.12,10.54,47.53,22.76,69.85,33.39l20.41,42,2.71,5.57,6,.69,70.39,8.15,15.21,35.19L1919.5,658l.5-8.32-10.27-1.24ZM135.57,483.65h.14C135.29,483.7,135.12,483.7,135.57,483.65ZM1094,303.47l.21.23,6-1.4c11.55-2.72,22-6.63,31.94-9.63,7.5,22.64,15.73,44.56,22.93,66.45-19.48-13.33-43.57-29.16-55.3-38.3C1097.43,315,1095.78,309.15,1094,303.47Z"/><path class="cls-2" d="M1140.86,497.87c-32.09-4.56-106.9-50.53-135.13-60L903.84,546.15l107.54-78c8,22.86,20.3,50.46,16.82,60.95,10.92,6.06,23.45,11.32,34.38,17.38-2.49,20.07-2.86,44.39-5.36,64.46,31,29.54,70.06,61.18,101,90.71,3.6-24.74,6.75-53.73,10.35-78.47-18.52-22.4-35.85-48.59-54.36-71Z"/><polygon class="cls-2" points="428.09 623.93 514.02 538.26 559.58 707.01 559.58 621.18 582.46 643.13 606.28 591.24 502.25 515.63 428.09 623.93"/><polygon class="cls-2" points="1462.7 569.72 1414.93 645.11 1470.29 592.36 1544.07 690.27 1559.01 634.08 1511.38 609.18 1462.7 569.72"/><path class="cls-2" d="M962.87,385.62l-39.3-3L890.53,247l20.28,157.34S962.21,385.62,962.87,385.62Z"/><polygon class="cls-2" points="328.06 547.8 308.56 547.8 290.45 467.47 295.98 571.66 373.36 596.7 342.07 574.75 328.06 547.8"/></g></g></g></svg>