<?xml version="1.0" encoding="utf-8"?>
<!-- Generator: Adobe Illustrator 26.1.0, SVG Export Plug-In . SVG Version: 6.00 Build 0)  -->
<svg version="1.1" id="Capa_1" xmlns="http://www.w3.org/2000/svg" xmlns:xlink="http://www.w3.org/1999/xlink" x="0px" y="0px"
	 viewBox="0 0 400 400" style="enable-background:new 0 0 400 400;" xml:space="preserve">
<style type="text/css">
	.st0{fill:#FFFFFF;}
</style>
<g id="Capa_2_00000036228055796711259370000003648564834601446026_">
	<g id="NAV">
		<path class="st0" d="M0,369.9v-42.2c0.3-1.4,0.8-2.7,1.5-3.9c3.2-5.2,7-10.1,11.2-14.5c42.5-46.8,98.8-78,155.5-104.5
			c34.8-16.3,69.3-30.8,101.7-46.5c10.8-5.2,21.4-10.8,31.9-16.6c31.2-17.4,62.5-39.8,79.6-72.2c0-0.2,0-0.3,0-0.5
			c-0.5-4-3.7-7.1-7.7-7.7c-0.1,0-0.2,0-0.4,0c-3.8,4.5-0.4,10,3.3,13.1l0,0l-4.5,6.3c0,0,0,0-0.3,0c-1.4-3.5-4.5-8.1-8.9-8.2
			c-0.1,0-0.2,0-0.4,0c-1.9,4.4-1.4,9.5,1.5,13.4c0.5,0.8,1.2,1.5,2.1,2.1c0,0,0,0.2,0,0.4l-4.8,5.8c-0.1,0.1-0.3,0.1-0.4,0l0,0
			c-1-4.9-4.6-8.9-9.4-10.4l0,0c-4.1,3.8-4.6,10.2-1,14.5c1.1,1.5,2.7,2.6,4.5,3c0,0,0,0,0,0.2c-2.5,2.6-5.3,5.1-8.1,7.3l0,0l0,0
			c-1-6.2-3.7-12.1-10.4-13.4 M336.4,95.3c-1.3,2-2.2,4.2-2.7,6.5c-1,4.9-0.6,11.9,5.4,13.4c0,0,0,0,0,0.3l-11.2,7.9l0,0
			c0.5-5.8-0.9-17.3-8-19c-0.1-0.1-0.3-0.1-0.4,0c-5.2,4.1-7.9,10.6-7.1,17.2c0.3,3.2,1.5,6.2,3.6,8.6c0,0,0,0.3,0,0.4l-8.9,5l0,0
			c0.6-7.7,0-18.5-7-23.7c-0.2-0.1-0.4-0.1-0.5,0c-6.4,5-7.1,16.6-6.2,23.9c0.2,2.1,0.6,4.1,1.2,6.1 M294.5,142.2l-8.2,4.5l0,0
			c3.1-8.4-0.9-24.1-8.9-28.8c-0.2-0.2-0.4-0.2-0.6,0c0,0,0,0,0,0c-5,7.5-7.7,16.3-7.9,25.3c-0.4,3.6,0.3,7.2,2.1,10.4
			c0,0,0,0,0,0.2l0,0l-10.1,4.5l0,0l0,0c2.9-11.1,4.5-28.4-6.1-36.6c-0.1-0.1-0.3-0.1-0.4,0c0,0,0,0,0,0c-8.5,8.8-12.5,21-10.9,33.1
			c0.2,3.5,0.8,6.9,2,10.3c0,0,0,0,0,0.3l-8.9,3.5l0,0l0,0c1.7-7.3,2.3-14.8,1.7-22.3c-0.5-8.1-2.6-17.6-10.3-22
			c-0.1-0.1-0.3-0.1-0.5,0c-6.9,7.2-10.9,16.8-11.2,26.8c-0.8,8.1,0,16.3,2.5,24c0.1,0.1,0.1,0.2,0,0.3l-10.4,4.5l0,0l0,0
			c2-11.3,2.5-22.9,1.4-34.4c-0.8-6.8-3.1-15.4-9.2-19.4 M200.2,126.3c-6.3,6.1-10.4,14.1-11.6,22.8c-2.3,12.5-0.4,25.5,5.5,36.8
			l0,0l0,0l-14.6,6.1l0,0l0,0c6.9-20.3,6.9-47.4-10-63.4c-0.1,0-0.2,0-0.3,0c-5.5,5.5-9.4,12.4-11.2,20c-3,11.1-4.1,22.7-3.2,34.1
			c0.4,4.2,1.8,14.8,6,17h0.3c0,0,0,0,0,0.3l-17.8,8.5l0,0c2.4-6.2,3.7-12.7,3.9-19.3c0.8-9.1,0.5-18.3-0.6-27.4
			c-1.2-8.9-4.2-23.7-13.4-28.3c-0.1-0.1-0.3-0.1-0.5,0c-12.4,10.4-19.2,25.9-18.4,42.1c0.3,14.5,3.7,28.8,10.1,41.9c0,0,0,0,0,0.3
			c-6.5,3.3-13.1,6.2-19.3,10l0,0l0,0c3.6-17,4-34.6,1.2-51.8c-2.2-11.6-7.8-24.9-18.7-30.9c-0.2-0.1-0.4-0.1-0.5,0
			c-16.1,13.4-20,35.4-19,55.5c0.6,11.2,2.7,22.2,6.2,32.8c0.9,3.4,2.5,6.6,4.8,9.3c0,0,0,0,0,0.3l-17,11.1c-0.3,0-0.3,0,0,0
			c1.1-3.7,1.6-7.5,1.5-11.4c0.3-12.6-0.8-25.1-3.1-37.5c-2.3-11.7-8.5-35.7-23.7-36.4c-0.2,0-0.4,0.1-0.6,0.3
			c-12.5,15.4-15.2,35.7-13.2,54.8c1.4,14.4,5,28.5,10.7,41.8c1,2.1,2.1,4.2,3.3,6.2c0,0,0,0.2,0,0.3L31,277c0,0-0.3,0-0.3,0
			c-3-6.8-6.5-13.7-8.9-20.4c-3-8-5.3-16.3-6.6-24.7c0-0.3-0.3-2.3-0.8-6.2c-2.8-21.4-0.4-43.1,7.2-63.2c0.1-0.2,0.2-0.4,0.4-0.4
			c27-15.9,56.4-27.5,87.1-34.2c24.4-5.1,49.1-8.2,74-9.3c11.6-0.6,23.1-1.2,34.7-1.7c21.5-0.6,43-3,64.2-6.9
			c27-5.2,52.3-17.2,73.4-34.9c14.9-13.1,27.9-28.2,38.6-44.8c0,0,0,0,0.2,0c3.2,9.5,12.5,36.3-1.3,41.7c-3,1-6.2,1.3-9.4,0.8l0,0
			l-1.8,3.8l0,0c4.7-1.2,9.6-1,14.3,0.4c0.9,0.3,1.8,0.8,2.5,1.3c0.1,0.1,0.1,0.3,0,0.4c-1.7,3.1-4.7,5.2-8.2,5.8
			c-4.1,0.9-8.3,0.2-11.9-1.9 M378,82.4l-4.1,6.3c0,0,0,0.2,0,0c6.8-2.4,14.3-1.5,20.3,2.6 M394.2,91.6c-6.3,6.6-16.5,7.7-24.1,2.4
			 M369.8,94l-3.9,4.5c0,0,0,0.3,0,0.3c7.9-0.8,15.8,1.9,21.5,7.5c0,0,0,0.3,0,0.4c-5.1,3.9-11.5,5.8-17.8,5.1
			c-3-0.3-9.5-1.8-10.9-4.7l0,0l0,0l-6.6,6.3c0,0,0,0.2,0,0c9.6-1.4,19.1,3.4,23.7,12l0,0l0,0c-10.2,7.1-24.2,5.2-32.2-4.3
			c-0.1-0.1-0.2-0.1-0.3,0c0,0,0,0,0,0l-9.3,7.2l0,0l0,0c10.8-0.7,22.6,3.3,27.9,13.4c0,0.2,0,0.4,0,0.4c-7.4,2.3-15.3,2.8-23,1.5
			c-5.7-0.9-10.9-4.1-14.1-8.9c0,0,0,0-0.3,0l-9.9,7l0,0c11.6,0.7,25.1,6.1,29.8,17.8c0,0.3,0,0.4-0.3,0.5
			c-13.3,3.1-27.2-0.2-37.7-8.9c-0.9-0.8-1.6-1.6-2.4-2.5c0,0,0,0-0.4,0l-8.2,4.7c-0.3,0-0.3,0.3,0,0.4
			c13.3,2.3,24.6,11.2,29.9,23.6l0,0l0,0c-15.8,3-34.5,2.4-45.1-12c-0.6-0.9-1.2-1.7-1.9-2.6c0,0-0.2,0-0.4,0l-11.4,5.6
			c-0.5,0.3-0.5,0.4,0,0.5c4.8,0.5,9.5,1.8,13.8,3.8c9.8,4.5,17.9,12.3,22.7,22c0.1,0.1,0.1,0.3,0,0.4c0,0,0,0,0,0l0,0
			c-17.5,3-37.7-1.2-49.1-16c-0.8-1-1.5-2.2-2.1-3.4l0,0l-10.9,5.4l0,0l3.1,0.5c17.1,3,27.5,17.8,33.5,32.7l0,0l0,0
			c-7.5,0.2-14.9-1-21.9-3.6c-9.8-3.6-18.9-9-26.8-15.9c-2-1.5-3.5-3.5-4.5-5.8l0,0l0,0l-11.4,5.4l0,0c18.7,2.5,35.7,19.3,40.7,37.3
			 M253.7,231.8c-4.8,1-9.7,1-14.5,0c-12.7-2.5-24.4-8.5-34-17.2c-4.1-3.1-7.1-7.5-8.5-12.5l0,0l-10.6,5.1l0,0
			c13.4,2.8,24.8,13.4,32.4,24.3c4.2,5.9,7.8,12.1,10.8,18.7c0,0,0,0,0,0.2c-6.1,0.9-12.3,0.3-18.2-1.6c-14.7-4.7-28-13-38.7-24.1
			c-2.6-2.1-4.8-4.5-6.7-7.2c0,0,0,0-0.3,0l-9.9,5.5l0,0c4.1,0.7,7.9,2.5,11.2,5c9.9,6.8,18.8,14.9,26.3,24.3c4.4,5,7.5,11,8.9,17.4
			c0.1,0.6,0.1,1.1,0,1.7l0,0c-21.8,1.2-43.3-8.9-59.3-23.2c-3.3-2.7-6.3-5.8-8.8-9.3c-0.7-1-1.1-2.1-1.3-3.3c0-0.4,0-0.4-0.4-0.3
			l-11.6,7.3l0,0c5.9,1.5,11.5,4,16.6,7.4c14.1,8.5,26.3,20,35.7,33.6c2.9,4.4,5.2,9.2,6.9,14.2 M179.7,298.1
			c-23,7.8-50.5-7.1-66.9-22.3c-4.2-3.8-7.9-8.1-11-12.9c-1.3-2-2.1-4.3-2.2-6.6l0,0l-17.8,13.4c0,0,0,0,0,0.3
			c6.1,1.3,12,3.5,17.5,6.5c13.2,6.7,25.3,15.2,36.1,25.3c10,9.2,18,20.3,23.6,32.8l0,0l0,0c-16.7,2.5-33.8,1.3-50-3.6
			c-21.7-6.7-39-23.1-46.9-44.4c0,0-0.3-0.3-0.4,0l0,0c-26.6,22.1-47,50.8-59.2,83.2c-0.1,0.1-0.2,0.1-0.3,0L179.7,298.1z"/>
	</g>
</g>
</svg>
