<svg xmlns="http://www.w3.org/2000/svg" viewBox="0 0 166.09 80"><defs><style>.cls-1,.cls-2,.cls-3{fill:#fff;}.cls-2{font-size:15.37px;}.cls-2,.cls-3{font-family:JosefinSans-Bold, Josefin Sans;font-weight:700;}.cls-3{font-size:11.53px;}</style></defs><g id="Capa_2" data-name="Capa 2"><g id="NAV"><path class="cls-1" d="M0,76.16V66.71a3.53,3.53,0,0,1,.33-.88,18.17,18.17,0,0,1,2.52-3.25C12.38,52.09,25,45.1,37.69,39.17c7.79-3.65,15.52-6.9,22.8-10.43,2.41-1.17,4.8-2.41,7.14-3.72,7-3.9,14-8.91,17.83-16.19a.21.21,0,0,0,0-.11A2,2,0,0,0,83.74,7a.11.11,0,0,0-.08,0c-.85,1-.08,2.25.75,2.93a0,0,0,0,1,0,0l-1,1.41s0,0-.06,0c-.31-.78-1-1.82-2-1.83a.12.12,0,0,0-.08,0,3,3,0,0,0,.34,3,1.35,1.35,0,0,0,.46.46s0,.05,0,.08l-1.07,1.29a.06.06,0,0,1-.08,0,.08.08,0,0,1,0,0A3.08,3.08,0,0,0,78.82,12s0,0,0,0a2.37,2.37,0,0,0-.22,3.25,1.73,1.73,0,0,0,1,.68s0,0,0,.05a18.84,18.84,0,0,1-1.82,1.64,0,0,0,0,1,0,0s0,0,0,0c-.22-1.38-.83-2.72-2.34-3a0,0,0,0,0-.06,0,3.92,3.92,0,0,0-.6,1.45c-.23,1.09-.13,2.66,1.2,3,0,0,0,0,0,.07l-2.5,1.77s0,0,0,0c.12-1.3-.2-3.87-1.79-4.26a.1.1,0,0,0-.09,0A4.29,4.29,0,0,0,70,20.51a3.36,3.36,0,0,0,.81,1.93s0,.06,0,.08l-2,1.12s0,0,0,0c.13-1.72,0-4.14-1.56-5.3a.09.09,0,0,0-.12,0c-1.43,1.12-1.6,3.73-1.4,5.36A6,6,0,0,0,66,25.06a0,0,0,0,1,0,.07l-1.84,1s0,0,0,0c.69-1.89-.21-5.39-2-6.46a.1.1,0,0,0-.15,0,10.81,10.81,0,0,0-1.78,5.66,3.85,3.85,0,0,0,.48,2.33s0,0,0,.05h0l-2.27,1a0,0,0,0,1,0,0v0c.64-2.49,1-6.36-1.37-8.2a.07.07,0,0,0-.1,0,9,9,0,0,0-2.44,7.42,8.54,8.54,0,0,0,.44,2.3s0,0,0,.07l-2,.79s0,0,0,0h0a16.59,16.59,0,0,0,.38-5c-.11-1.81-.58-3.95-2.3-4.92a.09.09,0,0,0-.11,0,9,9,0,0,0-2.5,6A13.22,13.22,0,0,0,49,32.55a.05.05,0,0,1,0,.07l-2.32,1a0,0,0,0,1,0,0v0A28.77,28.77,0,0,0,47,25.92c-.17-1.52-.69-3.45-2.07-4.35a0,0,0,0,0-.07,0,8.91,8.91,0,0,0-2.61,5.11,12.87,12.87,0,0,0,1.23,8.25,0,0,0,0,1,0,0h0l-3.28,1.37s0,0,0,0v0c1.55-4.56,1.55-10.63-2.23-14.21a.06.06,0,0,0-.06,0,9.25,9.25,0,0,0-2.5,4.48,22.19,22.19,0,0,0-.71,7.65c.08.94.4,3.31,1.35,3.8l.06,0s0,0,0,.07L32.12,40s0,0,0,0A13.16,13.16,0,0,0,33,35.67a29.41,29.41,0,0,0-.14-6.15c-.26-2-.93-5.3-3-6.34a.09.09,0,0,0-.11,0,11.61,11.61,0,0,0-4.13,9.43A22.6,22.6,0,0,0,27.88,42s0,0,0,.07c-1.45.73-2.94,1.39-4.33,2.24h0v0a32.09,32.09,0,0,0,.28-11.6c-.5-2.59-1.74-5.57-4.19-6.92a.13.13,0,0,0-.12,0c-3.6,3-4.49,7.94-4.25,12.44a27.54,27.54,0,0,0,1.4,7.35,5.24,5.24,0,0,0,1.08,2.08s0,0,0,.06l-3.8,2.49c-.06,0-.07,0,0,0a8.1,8.1,0,0,0,.34-2.55,40.11,40.11,0,0,0-.7-8.4c-.51-2.63-1.91-8-5.31-8.16a.16.16,0,0,0-.13.06c-2.79,3.45-3.41,8-2.95,12.27A31.28,31.28,0,0,0,7.6,52.8a11.53,11.53,0,0,0,.74,1.39s0,.05,0,.06L6.94,55.34s-.06,0-.07,0c-.68-1.52-1.46-3.07-2-4.58a28.91,28.91,0,0,1-1.49-5.54c0-.06-.07-.52-.18-1.4A29.27,29.27,0,0,1,4.82,29.65a.16.16,0,0,1,.08-.1,66.25,66.25,0,0,1,19.52-7.66A102.33,102.33,0,0,1,41,19.8q3.89-.21,7.77-.39a93.29,93.29,0,0,0,14.38-1.55,36.36,36.36,0,0,0,16.44-7.81A47.79,47.79,0,0,0,88.24,0s0,0,.05,0C89,2.13,91.08,8.14,88,9.35a4.66,4.66,0,0,1-2.1.18s0,0,0,0l-.41.85h0a6.1,6.1,0,0,1,3.2.08,1.94,1.94,0,0,1,.57.3.06.06,0,0,1,0,.08,2.59,2.59,0,0,1-1.83,1.31,3.57,3.57,0,0,1-2.66-.43,0,0,0,0,0-.07,0l-.91,1.41s0,.05,0,0a5,5,0,0,1,4.54.59,0,0,0,0,1,0,.07,4.16,4.16,0,0,1-5.39.54,0,0,0,0,0-.06,0l-.87,1s0,.07,0,.06a6,6,0,0,1,4.81,1.67s0,.07,0,.1a5.64,5.64,0,0,1-4,1.15c-.67-.06-2.12-.41-2.44-1.06,0,0,0,0,0,0h0l-1.47,1.42s0,.05,0,0a5.16,5.16,0,0,1,5.31,2.68,0,0,0,0,1,0,0h0A5.41,5.41,0,0,1,77,20.39a.05.05,0,0,0-.08,0L74.83,22s0,0,0,0h0c2.43-.15,5.06.74,6.26,3,0,.05,0,.08,0,.1a11.23,11.23,0,0,1-5.15.33,4.73,4.73,0,0,1-3.17-2s0,0-.06,0L70.49,25s0,0,0,0c2.61.15,5.63,1.37,6.68,4,0,.06,0,.1-.06.11a9.77,9.77,0,0,1-8.44-2,4.62,4.62,0,0,1-.53-.57s0,0-.09,0l-1.83,1.05c-.07,0-.07.07,0,.08a8.9,8.9,0,0,1,6.7,5.29,0,0,0,0,1,0,0h0c-3.55.68-7.74.53-10.1-2.69-.14-.2-.28-.39-.43-.58,0,0-.05,0-.09,0l-2.56,1.25c-.12.06-.12.1,0,.11a9.9,9.9,0,0,1,3.1.86,10.59,10.59,0,0,1,5.08,4.92.07.07,0,0,1,0,.1h0c-3.92.68-8.45-.26-11-3.58a4,4,0,0,1-.47-.76h0L54,33.81s0,0,0,0l.69.12c3.84.68,6.16,4,7.5,7.33a0,0,0,0,1,0,0h0a13.22,13.22,0,0,1-4.91-.8,18.93,18.93,0,0,1-6-3.57,3,3,0,0,1-1-1.31,0,0,0,0,0,0,0h0l-2.55,1.21s0,0,0,0c4.18.55,8,4.33,9.12,8.35a0,0,0,0,1,0,.06,8,8,0,0,1-3.24,0,16,16,0,0,1-7.62-3.85,5.43,5.43,0,0,1-1.91-2.8s0,0,0,0l-2.37,1.15s0,0,0,0c3,.62,5.55,3,7.26,5.44a26,26,0,0,1,2.43,4.18s0,0,0,.05a9,9,0,0,1-4.08-.36,21,21,0,0,1-8.68-5.4A8.27,8.27,0,0,1,37.13,42s0,0-.07,0l-2.21,1.24s0,0,0,0a5.78,5.78,0,0,1,2.51,1.12,27,27,0,0,1,5.89,5.45,8.9,8.9,0,0,1,2,3.91,1.21,1.21,0,0,1,0,.38s0,0,0,0c-4.89.27-9.71-2-13.28-5.19A10.62,10.62,0,0,1,30,46.82a1.67,1.67,0,0,1-.29-.75c0-.08,0-.1-.1-.06L27,47.65s0,0,0,0a12,12,0,0,1,3.72,1.65,26.16,26.16,0,0,1,8,7.52A13.34,13.34,0,0,1,40.26,60a0,0,0,0,1,0,.06c-5.16,1.74-11.32-1.59-15-5a14,14,0,0,1-2.47-2.88,3,3,0,0,1-.49-1.49s0,0,0,0l-4,3s0,0,0,.06a14,14,0,0,1,3.92,1.46,34.77,34.77,0,0,1,8.08,5.67,22.42,22.42,0,0,1,5.29,7.34,0,0,0,0,1,0,0h0a25.93,25.93,0,0,1-11.2-.8,16.41,16.41,0,0,1-10.51-9.95s-.06-.06-.09,0h0A44.68,44.68,0,0,0,.52,76.11a.07.07,0,0,1-.07,0Z"/><text class="cls-2" transform="translate(44.5 76.22)">NEW ZEALAND</text><text class="cls-3" transform="translate(121.21 56.47)">TURISM</text></g></g></svg>