<svg xmlns="http://www.w3.org/2000/svg" viewBox="0 0 300 299.85"><defs><style>.cls-1{fill:#fff;}</style></defs><g id="Capa_2" data-name="Capa 2"><g id="Capa_1-2" data-name="Capa 1"><path class="cls-1" d="M297.58,75.23C295.54,55.48,288,38,273.31,24,257.87,9.3,239,2.79,218.29,1.69,183.05-.22,99.33-1.45,69.91,3.34,36.33,8.82,14.3,28.44,5,61.61-2.13,87.12-.7,204.78,3.48,230c5.68,34.5,26.06,56.63,60.26,65.43,23.66,6.1,140,5.33,166,1.1,34.53-5.58,56.75-25.87,65.7-60C302.36,210.34,300,98.87,297.58,75.23ZM270,225.12c-4,26.22-21.4,42.43-47.74,45.32-24.2,2.65-132.28,4.12-154.72-2.17-21.47-6-33.76-20.76-37.3-42.36-3.42-20.65-4.25-123.81-.06-151.39,3.95-26,21.35-42.21,47.54-45.13,26.59-3,122.22-3.3,147.66.6,26.16,4,42.36,21.44,45.23,47.83C273.24,102.44,274,198.67,270,225.12ZM150,73A76.92,76.92,0,1,0,227,150,76.86,76.86,0,0,0,150,73Zm-.55,126.67c-27.12-.06-49.2-22.46-49.2-49.94a49.75,49.75,0,0,1,99.5.38C199.74,177.68,177.42,199.69,149.48,199.66ZM247.91,70.12A18,18,0,1,1,230.07,52,17.87,17.87,0,0,1,247.91,70.12Z"/></g></g></svg>